# xmcd
#
# Track frame offsets: 
#        150
#        16068
#        27601
#        41705
#        60100
#        76762
#        92806
#        114869
#        131853
#        146526
#        156203
#        170540
#
# Disc length: 2505 seconds
#
# Revision: 1
# Processed by: cddbd v1.5.2PL0 Copyright (c) Steve Scherf et al.
# Submitted via: ExactAudioCopyFreeDBPlugin 1.0
#
DISCID=9109c70c
DTITLE=Jimbo Mathus - Blue Healer
DYEAR=2015
DGENRE=Blues
TTITLE0=Shoot Out the Lights
TTITLE1=Mama Please
TTITLE2=Blue Healer
TTITLE3=Sometimes I Get Worried
TTITLE4=Ready To Run
TTITLE5=Thank You
TTITLE6=Coyote
TTITLE7=Bootheel Witch
TTITLE8=Old Earl
TTITLE9=Waiting On the Other Shoe to Fall
TTITLE10=Save It for the Highway
TTITLE11=Love and Affection
EXTD=
EXTT0=
EXTT1=
EXTT2=
EXTT3=
EXTT4=
EXTT5=
EXTT6=
EXTT7=
EXTT8=
EXTT9=
EXTT10=
EXTT11=
PLAYORDER=
